<svg xmlns="http://www.w3.org/2000/svg" viewBox="0 0 760 440" width="760" height="440"><title>Rolamento de esferas SKF 6205 e seus componentes</title><defs><mask id="vao" maskUnits="userSpaceOnUse" x="0" y="0" width="900" height="480"><path fill="white" fill-rule="evenodd" d="M 131.40 230.00 a 83.60 83.60 0 1 0 167.20 0 a 83.60 83.60 0 1 0 -167.20 0 Z M 150.40 230.00 a 64.60 64.60 0 1 0 129.20 0 a 64.60 64.60 0 1 0 -129.20 0 Z"/></mask><mask id="gaiola" maskUnits="userSpaceOnUse" x="0" y="0" width="900" height="480"><rect x="0" y="0" width="900" height="480" fill="white"/><circle cx="215.00" cy="155.82" r="16.69" fill="black"/><circle cx="262.68" cy="173.18" r="16.69" fill="black"/><circle cx="288.05" cy="217.12" r="16.69" fill="black"/><circle cx="279.24" cy="267.09" r="16.69" fill="black"/><circle cx="240.37" cy="299.70" r="16.69" fill="black"/><circle cx="189.63" cy="299.70" r="16.69" fill="black"/><circle cx="150.76" cy="267.09" r="16.69" fill="black"/><circle cx="141.95" cy="217.12" r="16.69" fill="black"/><circle cx="167.32" cy="173.18" r="16.69" fill="black"/></mask><marker id="seta" viewBox="0 0 10 10" refX="9" refY="5" markerWidth="7" markerHeight="7" orient="auto-start-reverse"><path d="M 0 1 L 9 5 L 0 9" fill="none" stroke="#1a1a1a" stroke-width="1.4" stroke-linecap="round" stroke-linejoin="round"/></marker></defs><circle cx="215.00" cy="230.00" r="98.80" fill="none" stroke="#1a1a1a" stroke-width="1.6" /><circle cx="215.00" cy="230.00" r="95.76" fill="none" stroke="#1a1a1a" stroke-width="1.0" /><circle cx="215.00" cy="230.00" r="83.60" fill="none" stroke="#1a1a1a" stroke-width="1.6" /><circle cx="215.00" cy="230.00" r="86.64" fill="none" stroke="#1a1a1a" stroke-width="1.0" /><circle cx="215.00" cy="230.00" r="64.60" fill="none" stroke="#1a1a1a" stroke-width="1.6" /><circle cx="215.00" cy="230.00" r="61.56" fill="none" stroke="#1a1a1a" stroke-width="1.0" /><circle cx="215.00" cy="230.00" r="47.50" fill="none" stroke="#1a1a1a" stroke-width="1.6" /><circle cx="215.00" cy="230.00" r="50.54" fill="none" stroke="#1a1a1a" stroke-width="1.0" /><g mask="url(#gaiola)"><circle cx="215.00" cy="230.00" r="69.98" fill="none" stroke="#1a1a1a" stroke-width="1.0" /><circle cx="215.00" cy="230.00" r="78.38" fill="none" stroke="#1a1a1a" stroke-width="1.0" /></g><circle cx="240.37" cy="160.30" r="1.60" fill="none" stroke="#1a1a1a" stroke-width="1.0" /><circle cx="279.24" cy="192.91" r="1.60" fill="none" stroke="#1a1a1a" stroke-width="1.0" /><circle cx="288.05" cy="242.88" r="1.60" fill="none" stroke="#1a1a1a" stroke-width="1.0" /><circle cx="262.68" cy="286.82" r="1.60" fill="none" stroke="#1a1a1a" stroke-width="1.0" /><circle cx="215.00" cy="304.18" r="1.60" fill="none" stroke="#1a1a1a" stroke-width="1.0" /><circle cx="167.32" cy="286.82" r="1.60" fill="none" stroke="#1a1a1a" stroke-width="1.0" /><circle cx="141.95" cy="242.88" r="1.60" fill="none" stroke="#1a1a1a" stroke-width="1.0" /><circle cx="150.76" cy="192.91" r="1.60" fill="none" stroke="#1a1a1a" stroke-width="1.0" /><circle cx="189.63" cy="160.30" r="1.60" fill="none" stroke="#1a1a1a" stroke-width="1.0" /><g mask="url(#vao)"><circle cx="215.00" cy="155.82" r="15.09" fill="none" stroke="#1a1a1a" stroke-width="1.6" /><path d="M 205.71 152.04 q 1 -4 5 -5" fill="none" stroke="#1a1a1a" stroke-width="1.0" stroke-linecap="round"/><circle cx="262.68" cy="173.18" r="15.09" fill="none" stroke="#1a1a1a" stroke-width="1.6" /><path d="M 253.39 169.39 q 1 -4 5 -5" fill="none" stroke="#1a1a1a" stroke-width="1.0" stroke-linecap="round"/><circle cx="288.05" cy="217.12" r="15.09" fill="none" stroke="#1a1a1a" stroke-width="1.6" /><path d="M 278.76 213.33 q 1 -4 5 -5" fill="none" stroke="#1a1a1a" stroke-width="1.0" stroke-linecap="round"/><circle cx="279.24" cy="267.09" r="15.09" fill="none" stroke="#1a1a1a" stroke-width="1.6" /><path d="M 269.95 263.30 q 1 -4 5 -5" fill="none" stroke="#1a1a1a" stroke-width="1.0" stroke-linecap="round"/><circle cx="240.37" cy="299.70" r="15.09" fill="none" stroke="#1a1a1a" stroke-width="1.6" /><path d="M 231.08 295.91 q 1 -4 5 -5" fill="none" stroke="#1a1a1a" stroke-width="1.0" stroke-linecap="round"/><circle cx="189.63" cy="299.70" r="15.09" fill="none" stroke="#1a1a1a" stroke-width="1.6" /><path d="M 180.34 295.91 q 1 -4 5 -5" fill="none" stroke="#1a1a1a" stroke-width="1.0" stroke-linecap="round"/><circle cx="150.76" cy="267.09" r="15.09" fill="none" stroke="#1a1a1a" stroke-width="1.6" /><path d="M 141.47 263.30 q 1 -4 5 -5" fill="none" stroke="#1a1a1a" stroke-width="1.0" stroke-linecap="round"/><circle cx="141.95" cy="217.12" r="15.09" fill="none" stroke="#1a1a1a" stroke-width="1.6" /><path d="M 132.66 213.33 q 1 -4 5 -5" fill="none" stroke="#1a1a1a" stroke-width="1.0" stroke-linecap="round"/><circle cx="167.32" cy="173.18" r="15.09" fill="none" stroke="#1a1a1a" stroke-width="1.6" /><path d="M 158.03 169.39 q 1 -4 5 -5" fill="none" stroke="#1a1a1a" stroke-width="1.0" stroke-linecap="round"/></g><circle cx="215" cy="230" r="2" fill="#1a1a1a"/><ellipse cx="505" cy="54" rx="46" ry="15.64" fill="none" stroke="#1a1a1a" stroke-width="1.6"/><ellipse cx="505" cy="54" rx="37" ry="12.58" fill="none" stroke="#1a1a1a" stroke-width="1.6"/><path d="M 459 54 L 459 69 A 46 15.64 0 0 0 551 69 L 551 54" fill="none" stroke="#1a1a1a" stroke-width="1.6"/><clipPath id="furo54"><ellipse cx="505" cy="54" rx="37" ry="12.58"/></clipPath><ellipse clip-path="url(#furo54)" cx="505" cy="69" rx="37" ry="12.58" fill="none" stroke="#1a1a1a" stroke-width="1.0"/><ellipse cx="505" cy="164" rx="40" ry="13.60" fill="none" stroke="#1a1a1a" stroke-width="1.6"/><ellipse cx="505" cy="164" rx="36" ry="12.24" fill="none" stroke="#1a1a1a" stroke-width="1.0"/><path d="M 465 164 L 465 176 A 40 13.60 0 0 0 545 176 L 545 164" fill="none" stroke="#1a1a1a" stroke-width="1.6"/><ellipse cx="544.39" cy="172.36" rx="1.20" ry="3.80" fill="none" stroke="#1a1a1a" stroke-width="1.0"/><ellipse cx="530.71" cy="180.42" rx="3.52" ry="3.80" fill="none" stroke="#1a1a1a" stroke-width="1.0"/><ellipse cx="505.00" cy="183.60" rx="4.60" ry="3.80" fill="none" stroke="#1a1a1a" stroke-width="1.0"/><ellipse cx="479.29" cy="180.42" rx="3.52" ry="3.80" fill="none" stroke="#1a1a1a" stroke-width="1.0"/><ellipse cx="465.61" cy="172.36" rx="1.20" ry="3.80" fill="none" stroke="#1a1a1a" stroke-width="1.0"/><circle cx="505.00" cy="282.00" r="15.00" fill="none" stroke="#1a1a1a" stroke-width="1.6" /><path d="M 496.75 281.25 q 1 -6.75 7.50 -7.50" fill="none" stroke="#1a1a1a" stroke-width="1.0" stroke-linecap="round"/><ellipse cx="505" cy="372" rx="31" ry="10.54" fill="none" stroke="#1a1a1a" stroke-width="1.6"/><ellipse cx="505" cy="372" rx="22" ry="7.48" fill="none" stroke="#1a1a1a" stroke-width="1.6"/><path d="M 474 372 L 474 387 A 31 10.54 0 0 0 536 387 L 536 372" fill="none" stroke="#1a1a1a" stroke-width="1.6"/><clipPath id="furo372"><ellipse cx="505" cy="372" rx="22" ry="7.48"/></clipPath><ellipse clip-path="url(#furo372)" cx="505" cy="387" rx="22" ry="7.48" fill="none" stroke="#1a1a1a" stroke-width="1.0"/><text x="585" y="61" font-family="Helvetica, Arial, 'DejaVu Sans', sans-serif" font-size="19" fill="#1a1a1a">Pista externa</text><text x="585" y="82" font-family="Helvetica, Arial, 'DejaVu Sans', sans-serif" font-size="14" fill="#1a1a1a" fill-opacity="0.65">defeito → BPFO</text><text x="585" y="169" font-family="Helvetica, Arial, 'DejaVu Sans', sans-serif" font-size="19" fill="#1a1a1a">Gaiola</text><text x="585" y="190" font-family="Helvetica, Arial, 'DejaVu Sans', sans-serif" font-size="14" fill="#1a1a1a" fill-opacity="0.65">defeito → FTF</text><text x="585" y="281" font-family="Helvetica, Arial, 'DejaVu Sans', sans-serif" font-size="19" fill="#1a1a1a">Esfera (×9)</text><text x="585" y="302" font-family="Helvetica, Arial, 'DejaVu Sans', sans-serif" font-size="14" fill="#1a1a1a" fill-opacity="0.65">defeito → BSF</text><text x="585" y="379" font-family="Helvetica, Arial, 'DejaVu Sans', sans-serif" font-size="19" fill="#1a1a1a">Pista interna</text><text x="585" y="400" font-family="Helvetica, Arial, 'DejaVu Sans', sans-serif" font-size="14" fill="#1a1a1a" fill-opacity="0.65">defeito → BPFI</text><circle cx="246.19" cy="144.30" r="2.6" fill="#1a1a1a"/><path d="M 246.19 144.30 C 265.00 92.62 376.00 58.00 446 58" fill="none" stroke="#1a1a1a" stroke-width="1.2" marker-end="url(#seta)"/><circle cx="282.88" cy="190.81" r="2.6" fill="#1a1a1a"/><path d="M 282.88 190.81 C 330.51 163.31 382.00 166.00 452 166" fill="none" stroke="#1a1a1a" stroke-width="1.2" marker-end="url(#seta)"/><circle cx="279.24" cy="267.09" r="2.6" fill="#1a1a1a"/><path d="M 279.24 267.09 C 326.87 294.59 411.00 282.00 481 282" fill="none" stroke="#1a1a1a" stroke-width="1.2" marker-end="url(#seta)"/><circle cx="251.03" cy="272.94" r="2.6" fill="#1a1a1a"/><path d="M 251.03 272.94 C 286.38 315.07 392.00 377.00 462 377" fill="none" stroke="#1a1a1a" stroke-width="1.2" marker-end="url(#seta)"/></svg>